<svg width="102" height="40" viewBox="0 0 102 40" fill="none" xmlns="http://www.w3.org/2000/svg">
<g clip-path="url(#clip0_186_3)">
<path d="M9.756 25L8.496 22.102H3.366L2.052 25H0.072L6.048 12.292L11.736 25H9.756ZM4.122 20.374H7.758L5.976 16.306L4.122 20.374ZM13.2525 12.994H15.3945C16.8525 12.994 17.7885 13.174 18.5625 13.696C19.8765 14.578 19.9845 16 19.9845 16.522C19.9845 18.25 18.9225 19.51 17.3205 19.87L21.0645 25H18.8505L15.4125 20.086H15.0885V25H13.2525V12.994ZM15.0885 14.686V18.502H15.6645C16.1685 18.502 18.2205 18.448 18.2205 16.54C18.2205 14.848 16.6185 14.686 15.7185 14.686H15.0885ZM21.4997 12.994H23.4797L26.8277 21.364L30.1757 12.994H32.1557L26.8277 25.774L21.4997 12.994ZM33.6607 12.994H35.4967V25H33.6607V12.994ZM38.3716 12.994H40.8916C42.5656 12.994 44.0236 13.174 45.3556 14.164C46.8136 15.262 47.6596 17.008 47.6596 19.006C47.6596 21.004 46.8316 22.732 45.2476 23.848C43.8436 24.838 42.5296 25 40.8556 25H38.3716V12.994ZM40.2076 14.722V23.272H40.9996C41.8996 23.272 43.1416 23.2 44.1856 22.426C45.0136 21.796 45.8236 20.644 45.8236 19.006C45.8236 17.422 45.0676 16.18 44.2036 15.55C43.1596 14.794 41.8816 14.722 40.9996 14.722H40.2076ZM57.9201 25L56.6601 22.102H51.5301L50.2161 25H48.2361L54.2121 12.292L59.9001 25H57.9201ZM52.2861 20.374H55.9221L54.1401 16.306L52.2861 20.374ZM61.4166 12.994H63.2526V23.272H66.7806V25H61.4166V12.994Z" fill="#41BFC4"/>
<path d="M67.8765 13.004C67.8765 10.616 69.6285 8.84 72.0285 8.84C74.4285 8.84 76.1805 10.616 76.1805 13.004C76.1805 15.392 74.4285 17.168 72.0285 17.168C69.6285 17.168 67.8765 15.392 67.8765 13.004ZM75.5085 13.004C75.5085 11.012 74.0565 9.44 72.0285 9.44C70.0005 9.44 68.5485 11.012 68.5485 13.004C68.5485 15.008 70.0125 16.568 72.0285 16.568C74.0445 16.568 75.5085 15.008 75.5085 13.004ZM74.0565 15.164H73.0125L71.6205 13.388V15.164H70.7685V10.676H71.9565C73.3845 10.676 73.5645 11.588 73.5645 12.02C73.5645 12.68 73.1685 13.136 72.5685 13.292L74.0565 15.164ZM71.6205 11.432V12.68H71.7885C72.4125 12.68 72.7245 12.428 72.7245 12.044C72.7245 11.468 72.1245 11.432 71.8125 11.432H71.6205Z" fill="#41BFC4"/>
</g>
<defs>
<clipPath id="clip0_186_3">
<rect width="102" height="40" fill="white"/>
</clipPath>
</defs>
</svg>
